<svg width="1200" height="900" viewBox="0 0 1200 900" fill="none" xmlns="http://www.w3.org/2000/svg">
  <rect width="1200" height="900" rx="56" fill="#FFF5F8"/>
  <rect x="72" y="64" width="1056" height="772" rx="44" fill="#FFFDFD"/>
  <rect x="128" y="120" width="944" height="88" rx="24" fill="#1A1A5E"/>
  <circle cx="182" cy="164" r="18" fill="#FF6B9D"/>
  <rect x="228" y="146" width="210" height="34" rx="10" fill="#FFF5F8" fill-opacity="0.24"/>
  <rect x="128" y="252" width="438" height="500" rx="34" fill="#FFF5F8"/>
  <rect x="612" y="252" width="460" height="234" rx="34" fill="#FFE1EB"/>
  <rect x="612" y="518" width="460" height="234" rx="34" fill="#1A1A5E"/>
  <rect x="170" y="304" width="250" height="38" rx="12" fill="#1A1A5E"/>
  <rect x="170" y="368" width="334" height="26" rx="10" fill="#D5D8EB"/>
  <rect x="170" y="412" width="334" height="26" rx="10" fill="#D5D8EB"/>
  <rect x="170" y="456" width="302" height="26" rx="10" fill="#D5D8EB"/>
  <rect x="170" y="528" width="356" height="112" rx="24" fill="#FFFDFD"/>
  <rect x="658" y="304" width="178" height="28" rx="10" fill="#1A1A5E"/>
  <rect x="658" y="358" width="344" height="20" rx="10" fill="#C94B80" fill-opacity="0.35"/>
  <rect x="658" y="396" width="316" height="20" rx="10" fill="#C94B80" fill-opacity="0.35"/>
  <rect x="658" y="570" width="198" height="28" rx="10" fill="#FFF5F8"/>
  <rect x="658" y="626" width="366" height="22" rx="11" fill="#FFF5F8" fill-opacity="0.36"/>
  <rect x="658" y="664" width="334" height="22" rx="11" fill="#FFF5F8" fill-opacity="0.36"/>
  <text x="170" y="692" fill="#FF6B9D" font-family="Arial, sans-serif" font-size="34" font-weight="700">COPY GENERATOR</text>
  <text x="170" y="736" fill="#1A1A5E" font-family="Arial, sans-serif" font-size="64" font-weight="700">轉換前的第一版文案</text>
</svg>
