<svg width="1200" height="900" viewBox="0 0 1200 900" fill="none" xmlns="http://www.w3.org/2000/svg">
  <rect width="1200" height="900" rx="56" fill="#FFF5F8"/>
  <rect x="72" y="64" width="1056" height="772" rx="44" fill="#FFFDFD"/>
  <rect x="126" y="118" width="948" height="610" rx="36" fill="#1A1A5E"/>
  <rect x="174" y="166" width="360" height="514" rx="30" fill="#FFF5F8"/>
  <rect x="570" y="166" width="456" height="240" rx="30" fill="#FFE3ED"/>
  <rect x="570" y="440" width="216" height="240" rx="30" fill="#FFFDFD"/>
  <rect x="810" y="440" width="216" height="240" rx="30" fill="#FFD0E0"/>
  <circle cx="354" cy="422" r="118" fill="#FF6B9D" fill-opacity="0.24"/>
  <rect x="250" y="278" width="206" height="250" rx="26" fill="#FF6B9D"/>
  <rect x="630" y="220" width="170" height="22" rx="11" fill="#1A1A5E"/>
  <rect x="630" y="270" width="312" height="18" rx="9" fill="#1A1A5E" fill-opacity="0.16"/>
  <rect x="630" y="304" width="274" height="18" rx="9" fill="#1A1A5E" fill-opacity="0.16"/>
  <rect x="866" y="490" width="104" height="140" rx="18" fill="#1A1A5E"/>
  <rect x="624" y="492" width="108" height="16" rx="8" fill="#1A1A5E"/>
  <rect x="624" y="526" width="118" height="16" rx="8" fill="#1A1A5E" fill-opacity="0.2"/>
  <rect x="624" y="558" width="96" height="16" rx="8" fill="#1A1A5E" fill-opacity="0.2"/>
  <text x="128" y="786" fill="#FF6B9D" font-family="Arial, sans-serif" font-size="34" font-weight="700">CREATIVE GENERATOR</text>
  <text x="128" y="830" fill="#1A1A5E" font-family="Arial, sans-serif" font-size="64" font-weight="700">把文案變成主視覺方向</text>
</svg>
